<svg xmlns="http://www.w3.org/2000/svg" viewBox="0 0 40 40" fill="#000000" id="Robot--Streamline-Phosphor" height="40" width="40">
  <desc>
    Robot Streamline Icon: https://streamlinehq.com
  </desc>
  <path d="M33.066671875 7.659265625h-11.6148125V1.85184375c0 -1.117625 -1.209875 -1.8161562500000001 -2.17778125 -1.2573281250000001 -0.449203125 0.25934375 -0.725921875 0.7386406249999999 -0.725921875 1.2573281250000001v5.807421874999999H6.933328125C3.725890625 7.659109375000001 1.125921875 10.25921875 1.125921875 13.466671875v20.325921875000002c0 3.20734375 2.6000625 5.80740625 5.80740625 5.80740625h26.13334375c3.20734375 0 5.80740625 -2.6000625 5.80740625 -5.80740625V13.466671875c0 -3.20734375 -2.6000625 -5.80740625 -5.80740625 -5.80740625Zm2.903703125 26.133328125c0 1.6036249999999999 -1.30009375 2.9036250000000003 -2.903703125 2.903703125H6.933328125c-1.60371875 0.0000625 -2.903703125 -1.2999843750000002 -2.903703125 -2.903703125V13.466671875c0 -1.603734375 1.2999843750000002 -2.9037812499999998 2.903703125 -2.903703125h26.13334375c1.603609375 0.0000625 2.903703125 1.3000781249999998 2.903703125 2.903703125Zm-9.437046875 -10.162968750000001H13.466671875c-3.911734375 0 -6.356562500000001 4.234578125 -4.400703125 7.62221875 0.90771875 1.5722187500000002 2.585265625 2.54075 4.400703125 2.54075h13.06665625c3.911734375 0 6.356562500000001 -4.2345625 4.400703125 -7.62221875 -0.90771875 -1.5722187500000002 -2.585265625 -2.54075 -4.400703125 -2.54075Zm-4.355546875 2.903703125v4.3555625h-4.3555625v-4.3555625Zm-10.888890625 2.17778125c0 -1.20275 0.9750156249999999 -2.17778125 2.17778125 -2.17778125h1.45184375v4.3555625h-1.45184375c-1.202765625 0 -2.17778125 -0.97503125 -2.17778125 -2.17778125Zm15.2444375 2.17778125h-1.45184375v-4.3555625h1.45184375c1.676453125 0 2.724234375 1.8148125000000002 1.8860156249999998 3.266671875 -0.38903124999999994 0.6738125 -1.10796875 1.088890625 -1.8860156249999998 1.088890625ZM9.83703125 18.548140625000002c0 -1.676453125 1.8148125000000002 -2.724234375 3.266671875 -1.886 1.45184375 0.83821875 1.45184375 2.9337968749999996 0 3.772015625 -0.3310625 0.191140625 -0.7066093750000001 0.291765625 -1.088890625 0.291765625 -1.20275 0 -2.17778125 -0.9750156249999999 -2.17778125 -2.17778125Zm15.970375 0c0 -1.676453125 1.8148125000000002 -2.724234375 3.266671875 -1.886 1.45184375 0.83821875 1.45184375 2.9337968749999996 0 3.772015625 -0.3310625 0.191140625 -0.7066093750000001 0.291765625 -1.088890625 0.291765625 -1.202765625 0 -2.17778125 -0.9750156249999999 -2.17778125 -2.17778125Z" stroke-width="0.1563"></path>
</svg>