<svg role="img" viewBox="0 0 40 40" xmlns="http://www.w3.org/2000/svg" id="N8n--Streamline-Simple-Icons" height="40" width="40">
  <desc>
    N8n Streamline Icon: https://streamlinehq.com
  </desc>
  <title>n8n</title>
  <path d="M35.789500000000004 9.473666666666666c-1.9620000000000002 0 -3.6105000000000005 1.3418333333333334 -4.078 3.1578333333333335h-4.825833333333334c-2.0583333333333336 0 -3.8150000000000004 1.4883333333333335 -4.153333333333333 3.518333333333334l-0.17300000000000001 1.0383333333333333a2.105 2.105 0 0 1 -2.0766666666666667 1.759166666666667H18.815c-0.4675000000000001 -1.8159999999999998 -2.116 -3.1578333333333335 -4.078 -3.1578333333333335s-3.6105000000000005 1.3418333333333334 -4.077833333333333 3.1578333333333335H8.288333333333334c-0.4675000000000001 -1.8159999999999998 -2.116 -3.1578333333333335 -4.078 -3.1578333333333335C1.8851666666666667 15.789499999999999 0 17.6745 0 20s1.885 4.210500000000001 4.210500000000001 4.210500000000001c1.9620000000000002 0 3.6105000000000005 -1.3418333333333334 4.078 -3.1578333333333335h2.3705c0.4673333333333333 1.8159999999999998 2.116 3.1578333333333335 4.077833333333333 3.1578333333333335 1.9620000000000002 0 3.6105000000000005 -1.3418333333333334 4.078 -3.1578333333333335h1.668a2.105 2.105 0 0 1 2.0765000000000002 1.759166666666667l0.17300000000000001 1.0383333333333333c0.3383333333333334 2.0300000000000002 2.0949999999999998 3.518333333333334 4.153333333333333 3.518333333333334h0.6153333333333333c0.4673333333333333 1.8158333333333332 2.116 3.1578333333333335 4.078 3.1578333333333335 2.3253333333333335 0 4.210500000000001 -1.885 4.210500000000001 -4.210500000000001s-1.885 -4.210500000000001 -4.210500000000001 -4.210500000000001c-1.9620000000000002 0 -3.6106666666666665 1.3416666666666668 -4.078 3.1578333333333335h-0.6153333333333333a2.105 2.105 0 0 1 -2.0766666666666667 -1.759166666666667l-0.17283333333333334 -1.0383333333333333A4.2 4.2 0 0 0 23.267833333333332 20a4.2 4.2 0 0 0 1.3683333333333334 -2.465666666666667l0.17300000000000001 -1.0383333333333333a2.105 2.105 0 0 1 2.0765000000000002 -1.759166666666667h4.825833333333334c0.4675000000000001 1.8159999999999998 2.116 3.1578333333333335 4.078 3.1578333333333335 2.3253333333333335 0 4.210500000000001 -1.885 4.210500000000001 -4.210500000000001s-1.885 -4.210500000000001 -4.210500000000001 -4.210500000000001m0 2.1053333333333337a2.105 2.105 0 0 1 2.1051666666666664 2.1051666666666664 2.105 2.105 0 0 1 -2.1051666666666664 2.1053333333333337 2.105 2.105 0 0 1 -2.1053333333333337 -2.1053333333333337 2.105 2.105 0 0 1 2.1053333333333337 -2.1051666666666664M4.210500000000001 17.89466666666667A2.105 2.105 0 0 1 6.315833333333333 20a2.105 2.105 0 0 1 -2.1053333333333337 2.1053333333333337A2.105 2.105 0 0 1 2.1053333333333337 20a2.105 2.105 0 0 1 2.1051666666666664 -2.1053333333333337m10.526333333333334 0A2.105 2.105 0 0 1 16.842166666666667 20a2.105 2.105 0 0 1 -2.1053333333333337 2.1053333333333337A2.105 2.105 0 0 1 12.631666666666666 20a2.105 2.105 0 0 1 2.1053333333333337 -2.1053333333333337m16.842166666666667 6.315833333333333a2.105 2.105 0 0 1 2.1051666666666664 2.1053333333333337 2.105 2.105 0 0 1 -2.1051666666666664 2.1051666666666664 2.105 2.105 0 0 1 -2.1053333333333337 -2.1051666666666664 2.105 2.105 0 0 1 2.1053333333333337 -2.1053333333333337" fill="#000000" stroke-width="1.6667"></path>
</svg>